HIERARCHY
ROOT Pelvis
{
	OFFSET -0.217368 -24.078917 2.858379
	CHANNELS 6 Xposition Yposition Zposition Zrotation Yrotation Xrotation 
	JOINT Left_hip
	{
		OFFSET 5.858135 -8.228005 -1.766408
		CHANNELS 3 Zrotation Yrotation Xrotation
		JOINT Left_knee
		{
			OFFSET 4.345143 -38.646942 0.803700
			CHANNELS 3 Zrotation Yrotation Xrotation
			JOINT Left_ankle
			{
				OFFSET -1.479033 -42.687447 -3.742800
				CHANNELS 3 Zrotation Yrotation Xrotation
				JOINT Left_foot
				{
					OFFSET 4.105436 -6.028605 12.204244
					CHANNELS 3 Zrotation Yrotation Xrotation
					End Site
					{
						OFFSET 0.000000 0.000000 0.000000
					}
				}
			}
		}
	}
	JOINT Right_hip
	{
		OFFSET -6.030973 -9.051328 -1.354253
		CHANNELS 3 Zrotation Yrotation Xrotation
		JOINT Right_knee
		{
			OFFSET -4.325663 -38.368790 -0.484304
			CHANNELS 3 Zrotation Yrotation Xrotation
			JOINT Right_ankle
			{
				OFFSET 1.905555 -42.004566 -3.456167
				CHANNELS 3 Zrotation Yrotation Xrotation
				JOINT Right_foot
				{
					OFFSET -3.483987 -6.210554 13.032330
					CHANNELS 3 Zrotation Yrotation Xrotation
					End Site
					{
						OFFSET 0.000000 0.000000 0.000000
					}
				}
			}
		}
	}
	JOINT Spine1
	{
		OFFSET 0.443945 12.440353 -3.838522
		CHANNELS 3 Zrotation Yrotation Xrotation
		JOINT Spine2
		{
			OFFSET 0.448844 13.795640 2.682033
			CHANNELS 3 Zrotation Yrotation Xrotation
			JOINT Spine3
			{
				OFFSET -0.226460 5.603239 0.285504
				CHANNELS 3 Zrotation Yrotation Xrotation
				JOINT Neck
				{
					OFFSET -1.339018 21.163553 -3.346758
					CHANNELS 3 Zrotation Yrotation Xrotation
					JOINT Head
					{
						OFFSET 1.011321 8.893734 5.040987
						CHANNELS 3 Zrotation Yrotation Xrotation
						End Site
						{
							OFFSET 0.000000 0.000000 0.000000
						}
					}
				}
				JOINT Left_collar
				{
					OFFSET 7.170247 11.399971 -1.889817
					CHANNELS 3 Zrotation Yrotation Xrotation
					JOINT Left_shoulder
					{
						OFFSET 12.292140 4.520507 -1.904600
						CHANNELS 3 Zrotation Yrotation Xrotation
						JOINT Left_elbow
						{
							OFFSET 25.533188 -1.564902 -2.294648
							CHANNELS 3 Zrotation Yrotation Xrotation
							JOINT Left_wrist
							{
								OFFSET 26.570929 1.269810 -0.737473
								CHANNELS 3 Zrotation Yrotation Xrotation
								JOINT Left_palm
								{
									OFFSET 8.669054 -1.063602 -1.559429
									CHANNELS 3 Zrotation Yrotation Xrotation
									End Site
									{
										OFFSET 0.000000 0.000000 0.000000
									}
								}
							}
						}
					}
				}
				JOINT Right_collar
				{
					OFFSET -8.295364 11.247234 -2.370738
					CHANNELS 3 Zrotation Yrotation Xrotation
					JOINT Right_shoulder
					{
						OFFSET -11.322830 4.685326 -0.847207
						CHANNELS 3 Zrotation Yrotation Xrotation
						JOINT Right_elbow
						{
							OFFSET -26.012751 -1.436928 -3.126872
							CHANNELS 3 Zrotation Yrotation Xrotation
							JOINT Right_wrist
							{
								OFFSET -26.910841 0.679372 -0.602677
								CHANNELS 3 Zrotation Yrotation Xrotation
								JOINT Right_palm
								{
									OFFSET -8.875370 -0.865157 -1.010708
									CHANNELS 3 Zrotation Yrotation Xrotation
									End Site
									{
										OFFSET 0.000000 0.000000 0.000000
									}
								}
							}
						}
					}
				}
			}
		}
	}
}
MOTION
Frames: 9
Frame Time: 0.016667
-0.217368 71.527802 2.858379 -1.771313 2.267631 -4.587825 6.029030 0.208558 7.260877 -5.347894 0.566057 -1.579704 3.021368 9.258474 10.688831 0.000000 0.000000 0.000000 -1.502171 -0.399421 4.991241 3.411932 -0.341167 2.175381 -1.734763 -7.889290 10.435298 0.000000 0.000000 0.000000 -1.619916 -0.255812 10.106541 4.641942 -0.566175 -23.043258 -1.449712 -0.374029 25.206113 -3.051077 2.914944 -15.325515 0.000000 0.000000 0.000000 -31.257149 2.645730 -5.238327 -40.266234 -3.535396 -3.278597 -13.575182 -20.110207 3.101850 0.000000 0.000000 0.000000 0.000000 0.000000 0.000000 24.436670 3.445344 -0.471550 41.744749 4.151948 -2.280699 7.830346 21.871577 2.032406 0.000000 0.000000 0.000000 0.000000 0.000000 0.000000 
-0.204391 71.413925 2.838180 -2.113299 1.704023 -4.913272 6.500350 0.193224 7.845334 -5.192641 0.547433 -1.901875 3.086876 9.482761 11.213392 0.000000 0.000000 0.000000 -1.663781 -0.402740 5.156461 3.921199 -0.400626 3.030423 -0.931775 -6.263335 10.265012 0.000000 0.000000 0.000000 -1.519654 -0.263756 10.043245 5.033146 -0.666016 -23.028534 -1.394491 -0.445236 26.012820 -4.520246 3.795927 -16.569531 0.000000 0.000000 0.000000 -31.567634 2.766352 -5.369891 -40.599165 -5.104688 -2.813992 -13.343904 -19.889753 3.026010 0.000000 0.000000 0.000000 0.000000 0.000000 0.000000 24.535174 4.094830 -0.086733 41.472929 5.245971 -1.916405 7.020588 21.300808 1.836979 0.000000 0.000000 0.000000 0.000000 0.000000 0.000000 
-0.198338 71.339813 2.828279 -1.909027 1.100387 -4.116822 6.622482 0.148202 6.797337 -5.596517 0.586842 -1.778171 3.255428 9.795524 11.394685 0.000000 0.000000 0.000000 -1.731319 -0.296708 3.965669 3.636372 -0.353394 4.265784 -1.213573 -6.852384 10.377794 0.000000 0.000000 0.000000 -1.444224 -0.235255 8.779456 4.773618 -0.647120 -22.352032 -1.380260 -0.102368 26.138968 -4.380307 3.713944 -16.453068 0.000000 0.000000 0.000000 -31.306230 2.150665 -4.913655 -41.074923 -4.742574 -2.961477 -11.010166 -20.124943 2.652038 0.000000 0.000000 0.000000 0.000000 0.000000 0.000000 24.276780 4.807697 0.359633 42.562845 5.611112 -1.841899 5.989719 20.493850 1.593931 0.000000 0.000000 0.000000 0.000000 0.000000 0.000000 
-0.194179 71.378685 2.810233 -1.884719 1.264248 -4.607096 7.057949 0.127232 7.137920 -5.971321 0.624572 -1.643621 3.423434 10.196214 12.020497 0.000000 0.000000 0.000000 -2.282939 -0.301791 4.428289 4.400858 -0.463238 4.395547 -1.476719 -7.432924 10.605359 0.000000 0.000000 0.000000 -1.918306 -0.225446 10.043643 5.357408 -0.728722 -23.287715 -1.261576 -0.531667 26.241409 -5.726875 4.487554 -16.645880 0.000000 0.000000 0.000000 -32.735075 2.430431 -5.330413 -39.810315 -5.104331 -2.761029 -11.828297 -19.678840 2.731407 0.000000 0.000000 0.000000 0.000000 0.000000 0.000000 23.915999 5.555339 0.828301 42.557427 5.229392 -1.967981 6.032358 20.372669 1.590267 0.000000 0.000000 0.000000 0.000000 0.000000 0.000000 
-0.184039 71.356339 2.792915 -1.954676 1.526702 -4.325983 7.248781 0.100456 6.689320 -6.237772 0.648561 -1.709728 3.399438 10.193961 12.196538 0.000000 0.000000 0.000000 -2.245658 -0.269453 3.998238 4.360492 -0.457452 4.338713 -1.737439 -8.021017 10.905089 0.000000 0.000000 0.000000 -1.643744 -0.246445 9.840554 5.087764 -0.662872 -23.264590 -1.366331 -0.484175 26.082700 -5.301574 4.243395 -16.446249 0.000000 0.000000 0.000000 -32.251658 2.117671 -5.038707 -40.266537 -4.369036 -3.020149 -11.386764 -20.242017 2.734735 0.000000 0.000000 0.000000 0.000000 0.000000 0.000000 23.912431 5.236011 0.637235 42.773869 4.291100 -2.289181 5.694023 21.443996 1.626084 0.000000 0.000000 0.000000 0.000000 0.000000 0.000000 
-0.173443 71.368660 2.780184 -1.869908 1.486875 -4.584702 7.134497 0.111936 6.807402 -6.368053 0.665817 -1.485994 3.431592 10.236810 12.155908 0.000000 0.000000 0.000000 -2.488463 -0.271571 4.205862 4.568776 -0.487637 4.476912 -1.773959 -8.136351 11.074352 0.000000 0.000000 0.000000 -1.645862 -0.264903 10.543346 4.898865 -0.586467 -23.680441 -1.451705 -0.449548 25.923626 -4.995042 4.067220 -16.443086 0.000000 0.000000 0.000000 -32.245244 2.255084 -5.131675 -40.099069 -4.107982 -3.088291 -11.377508 -20.318529 2.743865 0.000000 0.000000 0.000000 0.000000 0.000000 0.000000 24.053457 5.015357 0.497278 42.571379 3.995418 -2.376250 5.528966 21.774546 1.625425 0.000000 0.000000 0.000000 0.000000 0.000000 0.000000 
-0.152886 71.365501 2.771315 -1.818766 1.574021 -4.569355 7.263025 0.100225 6.716989 -6.846528 0.715540 -1.352841 3.305413 10.038555 12.168142 0.000000 0.000000 0.000000 -2.454888 -0.259453 4.026284 4.252641 -0.441001 4.747119 -1.703109 -7.973342 10.974595 0.000000 0.000000 0.000000 -1.622963 -0.274411 10.812527 4.818037 -0.566796 -23.676662 -1.431049 -0.426544 25.703621 -4.979007 4.055863 -16.169431 0.000000 0.000000 0.000000 -32.206132 2.220966 -5.102172 -40.063347 -3.899306 -3.149855 -11.337145 -20.449758 2.755121 0.000000 0.000000 0.000000 0.000000 0.000000 0.000000 23.964753 4.915549 0.442477 42.256051 3.453102 -2.536168 5.665354 22.641037 1.721627 0.000000 0.000000 0.000000 0.000000 0.000000 0.000000 
-0.126961 71.368256 2.771979 -1.597330 1.302377 -4.558661 7.154750 0.103006 6.548207 -6.833919 0.724232 -0.973204 3.112896 9.722494 12.124340 0.000000 0.000000 0.000000 -2.755750 -0.228561 3.851853 4.265993 -0.442067 5.199824 -1.548072 -7.588543 10.664980 0.000000 0.000000 0.000000 -1.721480 -0.272354 11.124335 4.711836 -0.543787 -23.629969 -1.429128 -0.315626 25.185729 -4.871981 3.992021 -15.951281 0.000000 0.000000 0.000000 -32.105575 2.195888 -5.069206 -39.882937 -3.586872 -3.231339 -11.693255 -20.727816 2.858819 0.000000 0.000000 0.000000 0.000000 0.000000 0.000000 24.037527 4.937067 0.451217 42.137079 3.226118 -2.602877 5.690613 23.189987 1.772500 0.000000 0.000000 0.000000 0.000000 0.000000 0.000000 
-0.104177 71.361305 2.774142 -1.466908 1.018321 -4.437103 6.811579 0.123726 6.453088 -6.835262 0.725157 -0.943058 3.290391 9.968344 11.946082 0.000000 0.000000 0.000000 -2.811153 -0.201920 3.541091 4.188839 -0.429984 5.327016 -1.717470 -7.917859 10.665064 0.000000 0.000000 0.000000 -1.750149 -0.267429 11.050473 4.813906 -0.580202 -23.467959 -1.375649 -0.166408 25.039168 -4.641581 3.859328 -16.042807 0.000000 0.000000 0.000000 -32.225722 2.129285 -5.042586 -39.763840 -3.502916 -3.247224 -11.535560 -20.864880 2.849714 0.000000 0.000000 0.000000 0.000000 0.000000 0.000000 24.103127 5.055277 0.518469 42.100305 2.967090 -2.684717 5.527087 23.484402 1.766652 0.000000 0.000000 0.000000 0.000000 0.000000 0.000000 
